<svg width="20" height="20" viewBox="0 0 20 20" fill="none" xmlns="http://www.w3.org/2000/svg">
<path d="M15.3383 5.86143C16.001 5.86143 16.5383 5.32417 16.5383 4.66143C16.5383 3.99868 16.001 3.46143 15.3383 3.46143C14.6756 3.46143 14.1383 3.99868 14.1383 4.66143C14.1383 5.32417 14.6756 5.86143 15.3383 5.86143Z" fill="white"/>
<path d="M9.99999 4.86475C8.98439 4.86475 7.99159 5.16591 7.14714 5.73015C6.30269 6.29439 5.64453 7.09637 5.25587 8.03467C4.86722 8.97297 4.76552 10.0054 4.96366 11.0015C5.1618 11.9976 5.65086 12.9126 6.369 13.6307C7.08714 14.3489 8.00211 14.8379 8.9982 15.0361C9.9943 15.2342 11.0268 15.1325 11.9651 14.7439C12.9034 14.3552 13.7053 13.697 14.2696 12.8526C14.8338 12.0082 15.135 11.0154 15.135 9.99975C15.135 8.63786 14.594 7.33175 13.631 6.36875C12.668 5.40575 11.3619 4.86475 9.99999 4.86475ZM9.99999 13.3331C9.34072 13.3331 8.69626 13.1376 8.14809 12.7713C7.59993 12.405 7.17269 11.8844 6.92039 11.2754C6.6681 10.6663 6.60209 9.99605 6.73071 9.34944C6.85933 8.70284 7.17679 8.1089 7.64297 7.64272C8.10914 7.17655 8.70309 6.85908 9.34969 6.73046C9.99629 6.60184 10.6665 6.66785 11.2756 6.92015C11.8847 7.17244 12.4053 7.59968 12.7716 8.14785C13.1378 8.69601 13.3333 9.34047 13.3333 9.99975C13.3333 10.8838 12.9821 11.7316 12.357 12.3568C11.7319 12.9819 10.884 13.3331 9.99999 13.3331Z" fill="white"/>
<path d="M10 1.80167C12.67 1.80167 12.9867 1.81167 14.0408 1.86C14.6749 1.86753 15.3029 1.98394 15.8975 2.20417C16.3289 2.37058 16.7207 2.62545 17.0476 2.9524C17.3745 3.27934 17.6294 3.67111 17.7958 4.1025C18.0161 4.69711 18.1325 5.32513 18.14 5.95917C18.1883 7.01333 18.1983 7.33 18.1983 10.0008C18.1983 12.6717 18.1883 12.9867 18.14 14.0408C18.1325 14.6749 18.0161 15.3029 17.7958 15.8975C17.6294 16.3289 17.3745 16.7207 17.0476 17.0476C16.7207 17.3745 16.3289 17.6294 15.8975 17.7958C15.3029 18.0161 14.6749 18.1325 14.0408 18.14C12.9867 18.1883 12.67 18.1983 10 18.1983C7.33 18.1983 7.01333 18.1883 5.95917 18.14C5.32513 18.1325 4.69711 18.0161 4.1025 17.7958C3.67111 17.6294 3.27934 17.3745 2.9524 17.0476C2.62545 16.7207 2.37058 16.3289 2.20417 15.8975C1.98394 15.3029 1.86753 14.6749 1.86 14.0408C1.81167 12.9867 1.80167 12.67 1.80167 10C1.80167 7.33 1.81167 7.01333 1.86 5.95917C1.86753 5.32513 1.98394 4.69711 2.20417 4.1025C2.37058 3.67111 2.62545 3.27934 2.9524 2.9524C3.27934 2.62545 3.67111 2.37058 4.1025 2.20417C4.69711 1.98394 5.32513 1.86753 5.95917 1.86C7.01333 1.81167 7.33 1.80167 10 1.80167ZM10 0C7.28417 0 6.94333 0.0116667 5.87667 0.06C5.04731 0.0767468 4.2268 0.233974 3.45 0.525C2.7856 0.781914 2.18222 1.17481 1.67851 1.67851C1.17481 2.18222 0.781914 2.7856 0.525 3.45C0.233882 4.22706 0.0766528 5.04786 0.06 5.8775C0.0116667 6.94417 0 7.28333 0 10C0 12.7167 0.0116667 13.0567 0.06 14.1233C0.0767468 14.9527 0.233974 15.7732 0.525 16.55C0.781914 17.2144 1.17481 17.8178 1.67851 18.3215C2.18222 18.8252 2.7856 19.2181 3.45 19.475C4.22706 19.7661 5.04786 19.9233 5.8775 19.94C6.94417 19.9883 7.28417 20 10 20C12.7158 20 13.0567 19.9883 14.1233 19.94C14.953 19.9233 15.7738 19.7661 16.5508 19.475C17.2152 19.2181 17.8186 18.8252 18.3223 18.3215C18.826 17.8178 19.2189 17.2144 19.4758 16.55C19.7667 15.7729 19.9236 14.9521 19.94 14.1225C19.9883 13.0558 20 12.7167 20 10C20 7.28333 19.9883 6.94333 19.94 5.87667C19.9233 5.04731 19.766 4.2268 19.475 3.45C19.2181 2.7856 18.8252 2.18222 18.3215 1.67851C17.8178 1.17481 17.2144 0.781914 16.55 0.525C15.7729 0.234167 14.9521 0.0772193 14.1225 0.0608333C13.0558 0.0108333 12.7167 0 10 0Z" fill="white"/>
</svg>
